<svg width="652" height="24" viewBox="0 0 652 24" fill="none" xmlns="http://www.w3.org/2000/svg">
<g clip-path="url(#clip0_48_358)">
<path d="M0.644 7.30864H2.884L4.2 16.6046H4.368L5.684 7.30864H7.924V17.1086H6.832V7.81264H6.664L5.348 17.1086H3.22L1.904 7.81264H1.736V17.1086H0.644V7.30864ZM12.2683 13.6646H12.0163L8.95027 7.30864H10.2663L12.7723 12.6566H12.9403L15.4463 7.30864H16.7623L13.6963 13.6646H13.4443V17.1086H12.2683V13.6646ZM26.5568 7.30864H33.4448V8.40064H30.5888V17.1086H29.4128V8.40064H26.5568V7.30864ZM35.1291 11.1166C35.1291 9.84731 35.4324 8.86264 36.0391 8.16264C36.6457 7.46264 37.4904 7.11264 38.5731 7.11264C39.6557 7.11264 40.5004 7.46264 41.1071 8.16264C41.7137 8.86264 42.0171 9.84731 42.0171 11.1166V13.3006C42.0171 14.6073 41.7137 15.6013 41.1071 16.2826C40.5004 16.964 39.6557 17.3046 38.5731 17.3046C37.4904 17.3046 36.6457 16.964 36.0391 16.2826C35.4324 15.6013 35.1291 14.6073 35.1291 13.3006V11.1166ZM38.5731 16.2126C39.3291 16.2126 39.8937 15.956 40.2671 15.4426C40.6497 14.92 40.8411 14.178 40.8411 13.2166V11.2006C40.8411 10.3046 40.6497 9.58131 40.2671 9.03064C39.8937 8.47998 39.3291 8.20464 38.5731 8.20464C37.8171 8.20464 37.2477 8.47998 36.8651 9.03064C36.4917 9.58131 36.3051 10.3046 36.3051 11.2006V13.2166C36.3051 14.178 36.4917 14.92 36.8651 15.4426C37.2477 15.956 37.8171 16.2126 38.5731 16.2126ZM43.7013 11.1166C43.7013 9.84731 44.0047 8.86264 44.6113 8.16264C45.218 7.46264 46.0627 7.11264 47.1453 7.11264C48.228 7.11264 49.0727 7.46264 49.6793 8.16264C50.286 8.86264 50.5893 9.84731 50.5893 11.1166V13.3006C50.5893 14.6073 50.286 15.6013 49.6793 16.2826C49.0727 16.964 48.228 17.3046 47.1453 17.3046C46.0627 17.3046 45.218 16.964 44.6113 16.2826C44.0047 15.6013 43.7013 14.6073 43.7013 13.3006V11.1166ZM47.1453 16.2126C47.9013 16.2126 48.466 15.956 48.8393 15.4426C49.222 14.92 49.4133 14.178 49.4133 13.2166V11.2006C49.4133 10.3046 49.222 9.58131 48.8393 9.03064C48.466 8.47998 47.9013 8.20464 47.1453 8.20464C46.3893 8.20464 45.82 8.47998 45.4373 9.03064C45.064 9.58131 44.8773 10.3046 44.8773 11.2006V13.2166C44.8773 14.178 45.064 14.92 45.4373 15.4426C45.82 15.956 46.3893 16.2126 47.1453 16.2126ZM52.6516 7.30864H53.8276V16.0166H58.9516V17.1086H52.6516V7.30864ZM66.5999 10.1366C66.5999 9.81931 66.5345 9.53931 66.4039 9.29664C66.2825 9.05398 66.1145 8.85331 65.8999 8.69464C65.6852 8.53598 65.4379 8.41464 65.1579 8.33064C64.8779 8.24664 64.5839 8.20464 64.2759 8.20464C64.0052 8.20464 63.7485 8.24198 63.5059 8.31664C63.2632 8.38198 63.0439 8.47998 62.8479 8.61064C62.6612 8.74131 62.5119 8.90464 62.3999 9.10064C62.2879 9.28731 62.2319 9.50664 62.2319 9.75864V9.84264C62.2319 10.1133 62.2879 10.3466 62.3999 10.5426C62.5119 10.7293 62.6752 10.8926 62.8899 11.0326C63.1139 11.1633 63.3892 11.2753 63.7159 11.3686C64.0425 11.4526 64.4252 11.5273 64.8639 11.5926C65.8905 11.7513 66.6465 12.0546 67.1319 12.5026C67.6172 12.9413 67.8599 13.534 67.8599 14.2806V14.4486C67.8599 14.8686 67.7852 15.256 67.6359 15.6106C67.4959 15.956 67.2812 16.2546 66.9919 16.5066C66.7119 16.7586 66.3619 16.9546 65.9419 17.0946C65.5219 17.2346 65.0365 17.3046 64.4859 17.3046C63.8605 17.3046 63.3052 17.216 62.8199 17.0386C62.3439 16.852 61.9425 16.6 61.6159 16.2826C61.2985 15.956 61.0559 15.578 60.8879 15.1486C60.7199 14.71 60.6359 14.234 60.6359 13.7206V13.3006H61.8119V13.6366C61.8119 14.4953 62.0452 15.1393 62.5119 15.5686C62.9879 15.998 63.6459 16.2126 64.4859 16.2126C65.2139 16.2126 65.7599 16.054 66.1239 15.7366C66.4972 15.41 66.6839 14.9806 66.6839 14.4486V14.3646C66.6839 13.8513 66.4925 13.4593 66.1099 13.1886C65.7365 12.918 65.1252 12.722 64.2759 12.6006C63.7812 12.5353 63.3332 12.4373 62.9319 12.3066C62.5399 12.1666 62.2039 11.9893 61.9239 11.7746C61.6439 11.5506 61.4292 11.2846 61.2799 10.9766C61.1305 10.6686 61.0559 10.3046 61.0559 9.88464V9.71664C61.0559 9.33398 61.1352 8.98398 61.2939 8.66664C61.4525 8.34931 61.6719 8.07398 61.9519 7.84064C62.2412 7.60731 62.5819 7.42998 62.9739 7.30864C63.3752 7.17798 63.8139 7.11264 64.2899 7.11264C64.8405 7.11264 65.3305 7.19198 65.7599 7.35064C66.1985 7.50931 66.5672 7.72398 66.8659 7.99464C67.1645 8.25598 67.3885 8.56864 67.5379 8.93264C67.6965 9.28731 67.7759 9.66064 67.7759 10.0526V10.6406H66.5999V10.1366ZM80.4544 16.3246C80.4544 16.054 80.5477 15.8253 80.7344 15.6386C80.9304 15.4426 81.1637 15.3446 81.4344 15.3446C81.7051 15.3446 81.9337 15.4426 82.1204 15.6386C82.3164 15.8253 82.4144 16.054 82.4144 16.3246C82.4144 16.5953 82.3164 16.8286 82.1204 17.0246C81.9337 17.2113 81.7051 17.3046 81.4344 17.3046C81.1637 17.3046 80.9304 17.2113 80.7344 17.0246C80.5477 16.8286 80.4544 16.5953 80.4544 16.3246ZM80.4544 10.9486C80.4544 10.678 80.5477 10.4493 80.7344 10.2626C80.9304 10.0666 81.1637 9.96864 81.4344 9.96864C81.7051 9.96864 81.9337 10.0666 82.1204 10.2626C82.3164 10.4493 82.4144 10.678 82.4144 10.9486C82.4144 11.2193 82.3164 11.4526 82.1204 11.6486C81.9337 11.8353 81.7051 11.9286 81.4344 11.9286C81.1637 11.9286 80.9304 11.8353 80.7344 11.6486C80.5477 11.4526 80.4544 11.2193 80.4544 10.9486ZM95.6249 7.30864H101.645V8.40064H96.8009V11.6486H101.561V12.7406H96.8009V17.1086H95.6249V7.30864ZM104.043 7.30864H110.259V8.40064H107.739V16.0166H110.259V17.1086H104.043V16.0166H106.563V8.40064H104.043V7.30864ZM114.785 12.4046H119.153V17.1086H118.061V15.9326H117.893C117.735 16.3433 117.455 16.6746 117.053 16.9266C116.652 17.1786 116.185 17.3046 115.653 17.3046C114.599 17.3046 113.768 16.964 113.161 16.2826C112.564 15.6013 112.265 14.6073 112.265 13.3006V11.1166C112.265 9.84731 112.569 8.86264 113.175 8.16264C113.782 7.46264 114.627 7.11264 115.709 7.11264C116.269 7.11264 116.764 7.20598 117.193 7.39264C117.623 7.56998 117.982 7.82198 118.271 8.14864C118.561 8.46598 118.78 8.84398 118.929 9.28264C119.079 9.71198 119.153 10.174 119.153 10.6686V10.8366H117.977V10.6686C117.977 10.3513 117.931 10.0433 117.837 9.74464C117.753 9.44598 117.618 9.18464 117.431 8.96064C117.254 8.72731 117.021 8.54531 116.731 8.41464C116.451 8.27464 116.111 8.20464 115.709 8.20464C114.953 8.20464 114.384 8.47998 114.001 9.03064C113.628 9.58131 113.441 10.3046 113.441 11.2006V13.2166C113.441 14.178 113.628 14.92 114.001 15.4426C114.384 15.956 114.963 16.2126 115.737 16.2126C116.437 16.2126 116.983 15.9886 117.375 15.5406C117.777 15.0926 117.977 14.4673 117.977 13.6646V13.4966H114.785V12.4046ZM120.656 7.30864H122.896L124.212 16.6046H124.38L125.696 7.30864H127.936V17.1086H126.844V7.81264H126.676L125.36 17.1086H123.232L121.916 7.81264H121.748V17.1086H120.656V7.30864ZM134.968 14.6726H130.768L130.054 17.1086H128.794L131.762 7.30864H133.974L136.942 17.1086H135.682L134.968 14.6726ZM132.784 7.81264L131.09 13.5806H134.646L132.952 7.81264H132.784ZM147.913 12.9646H152.113V13.9726H147.913V12.9646ZM164.203 7.30864H170.223V8.40064H165.379V11.6486H170.139V12.7406H165.379V17.1086H164.203V7.30864ZM178.795 17.1086H177.619V13.8326C177.619 13.59 177.563 13.4033 177.451 13.2726C177.339 13.142 177.143 13.0766 176.863 13.0766H173.811V17.1086H172.635V7.30864H176.135C176.639 7.30864 177.078 7.38331 177.451 7.53264C177.825 7.67264 178.133 7.86398 178.375 8.10664C178.627 8.34931 178.814 8.63398 178.935 8.96064C179.066 9.27798 179.131 9.61398 179.131 9.96864V10.3886C179.131 10.7526 179.029 11.1166 178.823 11.4806C178.627 11.8446 178.319 12.1246 177.899 12.3206V12.4886C178.179 12.5353 178.399 12.6473 178.557 12.8246C178.716 13.002 178.795 13.254 178.795 13.5806V17.1086ZM173.811 11.9846H175.995C176.658 11.9846 177.148 11.8446 177.465 11.5646C177.792 11.2753 177.955 10.8553 177.955 10.3046V10.0526C177.955 9.55798 177.792 9.16131 177.465 8.86264C177.148 8.55464 176.658 8.40064 175.995 8.40064H173.811V11.9846ZM186.402 14.6726H182.202L181.488 17.1086H180.228L183.196 7.30864H185.408L188.376 17.1086H187.116L186.402 14.6726ZM184.218 7.81264L182.524 13.5806H186.08L184.386 7.81264H184.218ZM189.234 7.30864H191.474L192.79 16.6046H192.958L194.274 7.30864H196.514V17.1086H195.422V7.81264H195.254L193.938 17.1086H191.81L190.494 7.81264H190.326V17.1086H189.234V7.30864ZM198.478 7.30864H204.414V8.40064H199.654V11.6486H204.33V12.7406H199.654V16.0166H204.498V17.1086H198.478V7.30864ZM213.084 17.1086H211.908V13.8326C211.908 13.59 211.852 13.4033 211.74 13.2726C211.628 13.142 211.432 13.0766 211.152 13.0766H208.1V17.1086H206.924V7.30864H210.424C210.928 7.30864 211.367 7.38331 211.74 7.53264C212.114 7.67264 212.422 7.86398 212.664 8.10664C212.916 8.34931 213.103 8.63398 213.224 8.96064C213.355 9.27798 213.42 9.61398 213.42 9.96864V10.3886C213.42 10.7526 213.318 11.1166 213.112 11.4806C212.916 11.8446 212.608 12.1246 212.188 12.3206V12.4886C212.468 12.5353 212.688 12.6473 212.846 12.8246C213.005 13.002 213.084 13.254 213.084 13.5806V17.1086ZM208.1 11.9846H210.284C210.947 11.9846 211.437 11.8446 211.754 11.5646C212.081 11.2753 212.244 10.8553 212.244 10.3046V10.0526C212.244 9.55798 212.081 9.16131 211.754 8.86264C211.437 8.55464 210.947 8.40064 210.284 8.40064H208.1V11.9846ZM225.063 12.9646H229.263V13.9726H225.063V12.9646ZM242.389 13.0766V17.1086H241.213V7.30864H244.713C245.217 7.30864 245.656 7.38331 246.029 7.53264C246.403 7.67264 246.711 7.86398 246.953 8.10664C247.205 8.34931 247.392 8.63398 247.513 8.96064C247.644 9.27798 247.709 9.61398 247.709 9.96864V10.3886C247.709 10.7433 247.644 11.084 247.513 11.4106C247.392 11.7373 247.205 12.0266 246.953 12.2786C246.701 12.5213 246.389 12.7173 246.015 12.8666C245.642 13.0066 245.208 13.0766 244.713 13.0766H242.389ZM242.389 11.9846H244.573C245.88 11.9846 246.533 11.4246 246.533 10.3046V10.0526C246.533 9.55798 246.37 9.16131 246.043 8.86264C245.726 8.55464 245.236 8.40064 244.573 8.40064H242.389V11.9846ZM255.946 17.1086H254.77V13.8326C254.77 13.59 254.714 13.4033 254.602 13.2726C254.49 13.142 254.294 13.0766 254.014 13.0766H250.962V17.1086H249.786V7.30864H253.286C253.79 7.30864 254.228 7.38331 254.602 7.53264C254.975 7.67264 255.283 7.86398 255.526 8.10664C255.778 8.34931 255.964 8.63398 256.086 8.96064C256.216 9.27798 256.282 9.61398 256.282 9.96864V10.3886C256.282 10.7526 256.179 11.1166 255.974 11.4806C255.778 11.8446 255.47 12.1246 255.05 12.3206V12.4886C255.33 12.5353 255.549 12.6473 255.708 12.8246C255.866 13.002 255.946 13.254 255.946 13.5806V17.1086ZM250.962 11.9846H253.146C253.808 11.9846 254.298 11.8446 254.616 11.5646C254.942 11.2753 255.106 10.8553 255.106 10.3046V10.0526C255.106 9.55798 254.942 9.16131 254.616 8.86264C254.298 8.55464 253.808 8.40064 253.146 8.40064H250.962V11.9846ZM258.008 11.1166C258.008 9.84731 258.311 8.86264 258.918 8.16264C259.525 7.46264 260.369 7.11264 261.452 7.11264C262.535 7.11264 263.379 7.46264 263.986 8.16264C264.593 8.86264 264.896 9.84731 264.896 11.1166V13.3006C264.896 14.6073 264.593 15.6013 263.986 16.2826C263.379 16.964 262.535 17.3046 261.452 17.3046C260.369 17.3046 259.525 16.964 258.918 16.2826C258.311 15.6013 258.008 14.6073 258.008 13.3006V11.1166ZM261.452 16.2126C262.208 16.2126 262.773 15.956 263.146 15.4426C263.529 14.92 263.72 14.178 263.72 13.2166V11.2006C263.72 10.3046 263.529 9.58131 263.146 9.03064C262.773 8.47998 262.208 8.20464 261.452 8.20464C260.696 8.20464 260.127 8.47998 259.744 9.03064C259.371 9.58131 259.184 10.3046 259.184 11.2006V13.2166C259.184 14.178 259.371 14.92 259.744 15.4426C260.127 15.956 260.696 16.2126 261.452 16.2126ZM266.58 7.30864H273.468V8.40064H270.612V17.1086H269.436V8.40064H266.58V7.30864ZM275.153 11.1166C275.153 9.84731 275.456 8.86264 276.062 8.16264C276.669 7.46264 277.514 7.11264 278.597 7.11264C279.679 7.11264 280.524 7.46264 281.131 8.16264C281.737 8.86264 282.041 9.84731 282.041 11.1166V13.3006C282.041 14.6073 281.737 15.6013 281.131 16.2826C280.524 16.964 279.679 17.3046 278.597 17.3046C277.514 17.3046 276.669 16.964 276.062 16.2826C275.456 15.6013 275.153 14.6073 275.153 13.3006V11.1166ZM278.597 16.2126C279.353 16.2126 279.917 15.956 280.291 15.4426C280.673 14.92 280.865 14.178 280.865 13.2166V11.2006C280.865 10.3046 280.673 9.58131 280.291 9.03064C279.917 8.47998 279.353 8.20464 278.597 8.20464C277.841 8.20464 277.271 8.47998 276.889 9.03064C276.515 9.58131 276.329 10.3046 276.329 11.2006V13.2166C276.329 14.178 276.515 14.92 276.889 15.4426C277.271 15.956 277.841 16.2126 278.597 16.2126ZM285.251 13.0766V17.1086H284.075V7.30864H287.575C288.079 7.30864 288.517 7.38331 288.891 7.53264C289.264 7.67264 289.572 7.86398 289.815 8.10664C290.067 8.34931 290.253 8.63398 290.375 8.96064C290.505 9.27798 290.571 9.61398 290.571 9.96864V10.3886C290.571 10.7433 290.505 11.084 290.375 11.4106C290.253 11.7373 290.067 12.0266 289.815 12.2786C289.563 12.5213 289.25 12.7173 288.877 12.8666C288.503 13.0066 288.069 13.0766 287.575 13.0766H285.251ZM285.251 11.9846H287.435C288.741 11.9846 289.395 11.4246 289.395 10.3046V10.0526C289.395 9.55798 289.231 9.16131 288.905 8.86264C288.587 8.55464 288.097 8.40064 287.435 8.40064H285.251V11.9846ZM292.633 7.30864H298.849V8.40064H296.329V16.0166H298.849V17.1086H292.633V16.0166H295.153V8.40064H292.633V7.30864ZM301.345 7.30864H307.281V8.40064H302.521V11.6486H307.197V12.7406H302.521V16.0166H307.365V17.1086H301.345V7.30864ZM319.358 12.9646H323.558V13.9726H319.358V12.9646ZM340.702 14.6726H336.502L335.788 17.1086H334.528L337.496 7.30864H339.708L342.676 17.1086H341.416L340.702 14.6726ZM338.518 7.81264L336.824 13.5806H340.38L338.686 7.81264H338.518ZM344.221 7.30864H350.241V8.40064H345.397V11.6486H350.157V12.7406H345.397V17.1086H344.221V7.30864ZM352.303 7.30864H359.191V8.40064H356.335V17.1086H355.159V8.40064H352.303V7.30864ZM361.351 7.30864H367.287V8.40064H362.527V11.6486H367.203V12.7406H362.527V16.0166H367.371V17.1086H361.351V7.30864ZM375.957 17.1086H374.781V13.8326C374.781 13.59 374.725 13.4033 374.613 13.2726C374.501 13.142 374.305 13.0766 374.025 13.0766H370.973V17.1086H369.797V7.30864H373.297C373.801 7.30864 374.24 7.38331 374.613 7.53264C374.987 7.67264 375.295 7.86398 375.537 8.10664C375.789 8.34931 375.976 8.63398 376.097 8.96064C376.228 9.27798 376.293 9.61398 376.293 9.96864V10.3886C376.293 10.7526 376.191 11.1166 375.985 11.4806C375.789 11.8446 375.481 12.1246 375.061 12.3206V12.4886C375.341 12.5353 375.561 12.6473 375.719 12.8246C375.878 13.002 375.957 13.254 375.957 13.5806V17.1086ZM370.973 11.9846H373.157C373.82 11.9846 374.31 11.8446 374.627 11.5646C374.954 11.2753 375.117 10.8553 375.117 10.3046V10.0526C375.117 9.55798 374.954 9.16131 374.627 8.86264C374.31 8.55464 373.82 8.40064 373.157 8.40064H370.973V11.9846ZM387.068 7.30864H393.004V8.40064H388.244V11.6486H392.92V12.7406H388.244V16.0166H393.088V17.1086H387.068V7.30864ZM395.654 7.30864H401.674V8.40064H396.83V11.6486H401.59V12.7406H396.83V17.1086H395.654V7.30864ZM404.226 7.30864H410.246V8.40064H405.402V11.6486H410.162V12.7406H405.402V17.1086H404.226V7.30864ZM412.785 7.30864H418.721V8.40064H413.961V11.6486H418.637V12.7406H413.961V16.0166H418.805V17.1086H412.785V7.30864ZM424.381 16.2126C424.782 16.2126 425.123 16.1473 425.403 16.0166C425.692 15.8766 425.926 15.6946 426.103 15.4706C426.29 15.2373 426.425 14.976 426.509 14.6866C426.602 14.388 426.649 14.0753 426.649 13.7486V13.5806H427.825V13.7486C427.825 14.2433 427.75 14.71 427.601 15.1486C427.452 15.578 427.232 15.956 426.943 16.2826C426.654 16.6 426.294 16.852 425.865 17.0386C425.436 17.216 424.941 17.3046 424.381 17.3046C423.298 17.3046 422.454 16.964 421.847 16.2826C421.24 15.6013 420.937 14.6073 420.937 13.3006V11.1166C420.937 9.84731 421.24 8.86264 421.847 8.16264C422.454 7.46264 423.298 7.11264 424.381 7.11264C424.941 7.11264 425.436 7.20598 425.865 7.39264C426.294 7.56998 426.654 7.82198 426.943 8.14864C427.232 8.46598 427.452 8.84398 427.601 9.28264C427.75 9.71198 427.825 10.174 427.825 10.6686V10.8366H426.649V10.6686C426.64 10.3513 426.588 10.0433 426.495 9.74464C426.411 9.44598 426.276 9.18464 426.089 8.96064C425.912 8.72731 425.683 8.54531 425.403 8.41464C425.123 8.27464 424.782 8.20464 424.381 8.20464C423.625 8.20464 423.056 8.47998 422.673 9.03064C422.3 9.58131 422.113 10.3046 422.113 11.2006V13.2166C422.113 14.178 422.3 14.92 422.673 15.4426C423.056 15.956 423.625 16.2126 424.381 16.2126ZM429.453 7.30864H436.341V8.40064H433.485V17.1086H432.309V8.40064H429.453V7.30864ZM443.78 10.1366C443.78 9.81931 443.714 9.53931 443.584 9.29664C443.462 9.05398 443.294 8.85331 443.08 8.69464C442.865 8.53598 442.618 8.41464 442.338 8.33064C442.058 8.24664 441.764 8.20464 441.456 8.20464C441.185 8.20464 440.928 8.24198 440.686 8.31664C440.443 8.38198 440.224 8.47998 440.028 8.61064C439.841 8.74131 439.692 8.90464 439.58 9.10064C439.468 9.28731 439.412 9.50664 439.412 9.75864V9.84264C439.412 10.1133 439.468 10.3466 439.58 10.5426C439.692 10.7293 439.855 10.8926 440.07 11.0326C440.294 11.1633 440.569 11.2753 440.896 11.3686C441.222 11.4526 441.605 11.5273 442.044 11.5926C443.07 11.7513 443.826 12.0546 444.312 12.5026C444.797 12.9413 445.04 13.534 445.04 14.2806V14.4486C445.04 14.8686 444.965 15.256 444.816 15.6106C444.676 15.956 444.461 16.2546 444.172 16.5066C443.892 16.7586 443.542 16.9546 443.122 17.0946C442.702 17.2346 442.216 17.3046 441.666 17.3046C441.04 17.3046 440.485 17.216 440 17.0386C439.524 16.852 439.122 16.6 438.796 16.2826C438.478 15.956 438.236 15.578 438.068 15.1486C437.9 14.71 437.816 14.234 437.816 13.7206V13.3006H438.992V13.6366C438.992 14.4953 439.225 15.1393 439.692 15.5686C440.168 15.998 440.826 16.2126 441.666 16.2126C442.394 16.2126 442.94 16.054 443.304 15.7366C443.677 15.41 443.864 14.9806 443.864 14.4486V14.3646C443.864 13.8513 443.672 13.4593 443.29 13.1886C442.916 12.918 442.305 12.722 441.456 12.6006C440.961 12.5353 440.513 12.4373 440.112 12.3066C439.72 12.1666 439.384 11.9893 439.104 11.7746C438.824 11.5506 438.609 11.2846 438.46 10.9766C438.31 10.6686 438.236 10.3046 438.236 9.88464V9.71664C438.236 9.33398 438.315 8.98398 438.474 8.66664C438.632 8.34931 438.852 8.07398 439.132 7.84064C439.421 7.60731 439.762 7.42998 440.154 7.30864C440.555 7.17798 440.994 7.11264 441.47 7.11264C442.02 7.11264 442.51 7.19198 442.94 7.35064C443.378 7.50931 443.747 7.72398 444.046 7.99464C444.344 8.25598 444.568 8.56864 444.718 8.93264C444.876 9.28731 444.956 9.66064 444.956 10.0526V10.6406H443.78V10.1366ZM456.514 12.9646H460.714V13.9726H456.514V12.9646ZM478.069 10.1366C478.069 9.81931 478.003 9.53931 477.873 9.29664C477.751 9.05398 477.583 8.85331 477.369 8.69464C477.154 8.53598 476.907 8.41464 476.627 8.33064C476.347 8.24664 476.053 8.20464 475.745 8.20464C475.474 8.20464 475.217 8.24198 474.975 8.31664C474.732 8.38198 474.513 8.47998 474.317 8.61064C474.13 8.74131 473.981 8.90464 473.869 9.10064C473.757 9.28731 473.701 9.50664 473.701 9.75864V9.84264C473.701 10.1133 473.757 10.3466 473.869 10.5426C473.981 10.7293 474.144 10.8926 474.359 11.0326C474.583 11.1633 474.858 11.2753 475.185 11.3686C475.511 11.4526 475.894 11.5273 476.333 11.5926C477.359 11.7513 478.115 12.0546 478.601 12.5026C479.086 12.9413 479.329 13.534 479.329 14.2806V14.4486C479.329 14.8686 479.254 15.256 479.105 15.6106C478.965 15.956 478.75 16.2546 478.461 16.5066C478.181 16.7586 477.831 16.9546 477.411 17.0946C476.991 17.2346 476.505 17.3046 475.955 17.3046C475.329 17.3046 474.774 17.216 474.289 17.0386C473.813 16.852 473.411 16.6 473.085 16.2826C472.767 15.956 472.525 15.578 472.357 15.1486C472.189 14.71 472.105 14.234 472.105 13.7206V13.3006H473.281V13.6366C473.281 14.4953 473.514 15.1393 473.981 15.5686C474.457 15.998 475.115 16.2126 475.955 16.2126C476.683 16.2126 477.229 16.054 477.593 15.7366C477.966 15.41 478.153 14.9806 478.153 14.4486V14.3646C478.153 13.8513 477.961 13.4593 477.579 13.1886C477.205 12.918 476.594 12.722 475.745 12.6006C475.25 12.5353 474.802 12.4373 474.401 12.3066C474.009 12.1666 473.673 11.9893 473.393 11.7746C473.113 11.5506 472.898 11.2846 472.749 10.9766C472.599 10.6686 472.525 10.3046 472.525 9.88464V9.71664C472.525 9.33398 472.604 8.98398 472.763 8.66664C472.921 8.34931 473.141 8.07398 473.421 7.84064C473.71 7.60731 474.051 7.42998 474.443 7.30864C474.844 7.17798 475.283 7.11264 475.759 7.11264C476.309 7.11264 476.799 7.19198 477.229 7.35064C477.667 7.50931 478.036 7.72398 478.335 7.99464C478.633 8.25598 478.857 8.56864 479.007 8.93264C479.165 9.28731 479.245 9.66064 479.245 10.0526V10.6406H478.069V10.1366ZM482.413 13.0766V17.1086H481.237V7.30864H484.737C485.241 7.30864 485.68 7.38331 486.053 7.53264C486.426 7.67264 486.734 7.86398 486.977 8.10664C487.229 8.34931 487.416 8.63398 487.537 8.96064C487.668 9.27798 487.733 9.61398 487.733 9.96864V10.3886C487.733 10.7433 487.668 11.084 487.537 11.4106C487.416 11.7373 487.229 12.0266 486.977 12.2786C486.725 12.5213 486.412 12.7173 486.039 12.8666C485.666 13.0066 485.232 13.0766 484.737 13.0766H482.413ZM482.413 11.9846H484.597C485.904 11.9846 486.557 11.4246 486.557 10.3046V10.0526C486.557 9.55798 486.394 9.16131 486.067 8.86264C485.75 8.55464 485.26 8.40064 484.597 8.40064H482.413V11.9846ZM489.837 7.30864H491.013V16.0166H496.137V17.1086H489.837V7.30864ZM498.367 7.30864H504.583V8.40064H502.063V16.0166H504.583V17.1086H498.367V16.0166H500.887V8.40064H498.367V7.30864ZM511.966 16.6046H512.134V7.30864H513.31V17.1086H510.958L508.13 7.81264H507.962V17.1086H506.786V7.30864H509.138L511.966 16.6046ZM515.652 7.30864H521.588V8.40064H516.828V11.6486H521.504V12.7406H516.828V16.0166H521.672V17.1086H515.652V7.30864ZM534.798 12.2366V10.6126L537.99 8.56864V8.40064H532.446V7.30864H538.998V9.10064L535.806 11.1446V11.3126H536.366C536.74 11.3126 537.099 11.3733 537.444 11.4946C537.79 11.616 538.093 11.7933 538.354 12.0266C538.625 12.26 538.84 12.5493 538.998 12.8946C539.166 13.2306 539.25 13.6226 539.25 14.0706V14.3226C539.25 14.7426 539.166 15.1346 538.998 15.4986C538.83 15.8626 538.597 16.18 538.298 16.4506C538 16.712 537.645 16.922 537.234 17.0806C536.833 17.23 536.394 17.3046 535.918 17.3046C535.368 17.3046 534.873 17.2206 534.434 17.0526C533.996 16.8846 533.622 16.656 533.314 16.3666C533.006 16.068 532.768 15.7226 532.6 15.3306C532.442 14.9293 532.362 14.5046 532.362 14.0566V13.3006H533.538V13.9726C533.538 14.3273 533.594 14.6446 533.706 14.9246C533.828 15.1953 533.991 15.4286 534.196 15.6246C534.411 15.8113 534.663 15.956 534.952 16.0586C535.242 16.1613 535.554 16.2126 535.89 16.2126C536.198 16.2126 536.483 16.1613 536.744 16.0586C537.015 15.956 537.248 15.816 537.444 15.6386C537.64 15.452 537.794 15.2373 537.906 14.9946C538.018 14.7426 538.074 14.4766 538.074 14.1966V14.1126C538.074 13.5246 537.888 13.0673 537.514 12.7406C537.141 12.4046 536.674 12.2366 536.114 12.2366H534.798ZM541.075 7.30864H544.295C545.508 7.30864 546.395 7.59798 546.955 8.17664C547.515 8.75531 547.795 9.67931 547.795 10.9486V13.4686C547.795 14.738 547.515 15.662 546.955 16.2406C546.395 16.8193 545.508 17.1086 544.295 17.1086H541.075V16.0026H541.915V8.40064H541.075V7.30864ZM544.127 16.0166C544.556 16.0166 544.925 15.9746 545.233 15.8906C545.55 15.8066 545.811 15.6666 546.017 15.4706C546.222 15.2653 546.371 14.9946 546.465 14.6586C546.567 14.3226 546.619 13.898 546.619 13.3846V11.0326C546.619 10.5193 546.567 10.0946 546.465 9.75864C546.371 9.42264 546.222 9.15664 546.017 8.96064C545.811 8.75531 545.55 8.61064 545.233 8.52664C544.925 8.44264 544.556 8.40064 544.127 8.40064H543.091V16.0166H544.127ZM559.381 12.9646H563.581V13.9726H559.381V12.9646ZM576.708 13.0766V17.1086H575.532V7.30864H579.032C579.536 7.30864 579.974 7.38331 580.348 7.53264C580.721 7.67264 581.029 7.86398 581.272 8.10664C581.524 8.34931 581.71 8.63398 581.832 8.96064C581.962 9.27798 582.028 9.61398 582.028 9.96864V10.3886C582.028 10.7433 581.962 11.084 581.832 11.4106C581.71 11.7373 581.524 12.0266 581.272 12.2786C581.02 12.5213 580.707 12.7173 580.334 12.8666C579.96 13.0066 579.526 13.0766 579.032 13.0766H576.708ZM576.708 11.9846H578.892C580.198 11.9846 580.852 11.4246 580.852 10.3046V10.0526C580.852 9.55798 580.688 9.16131 580.362 8.86264C580.044 8.55464 579.554 8.40064 578.892 8.40064H576.708V11.9846ZM590.264 17.1086H589.088V13.8326C589.088 13.59 589.032 13.4033 588.92 13.2726C588.808 13.142 588.612 13.0766 588.332 13.0766H585.28V17.1086H584.104V7.30864H587.604C588.108 7.30864 588.547 7.38331 588.92 7.53264C589.293 7.67264 589.601 7.86398 589.844 8.10664C590.096 8.34931 590.283 8.63398 590.404 8.96064C590.535 9.27798 590.6 9.61398 590.6 9.96864V10.3886C590.6 10.7526 590.497 11.1166 590.292 11.4806C590.096 11.8446 589.788 12.1246 589.368 12.3206V12.4886C589.648 12.5353 589.867 12.6473 590.026 12.8246C590.185 13.002 590.264 13.254 590.264 13.5806V17.1086ZM585.28 11.9846H587.464C588.127 11.9846 588.617 11.8446 588.934 11.5646C589.261 11.2753 589.424 10.8553 589.424 10.3046V10.0526C589.424 9.55798 589.261 9.16131 588.934 8.86264C588.617 8.55464 588.127 8.40064 587.464 8.40064H585.28V11.9846ZM592.662 7.30864H598.878V8.40064H596.358V16.0166H598.878V17.1086H592.662V16.0166H595.182V8.40064H592.662V7.30864ZM606.261 16.6046H606.429V7.30864H607.605V17.1086H605.253L602.425 7.81264H602.257V17.1086H601.081V7.30864H603.433L606.261 16.6046ZM612.971 16.2126C613.372 16.2126 613.713 16.1473 613.993 16.0166C614.282 15.8766 614.516 15.6946 614.693 15.4706C614.88 15.2373 615.015 14.976 615.099 14.6866C615.192 14.388 615.239 14.0753 615.239 13.7486V13.5806H616.415V13.7486C616.415 14.2433 616.34 14.71 616.191 15.1486C616.042 15.578 615.822 15.956 615.533 16.2826C615.244 16.6 614.884 16.852 614.455 17.0386C614.026 17.216 613.531 17.3046 612.971 17.3046C611.888 17.3046 611.044 16.964 610.437 16.2826C609.83 15.6013 609.527 14.6073 609.527 13.3006V11.1166C609.527 9.84731 609.83 8.86264 610.437 8.16264C611.044 7.46264 611.888 7.11264 612.971 7.11264C613.531 7.11264 614.026 7.20598 614.455 7.39264C614.884 7.56998 615.244 7.82198 615.533 8.14864C615.822 8.46598 616.042 8.84398 616.191 9.28264C616.34 9.71198 616.415 10.174 616.415 10.6686V10.8366H615.239V10.6686C615.23 10.3513 615.178 10.0433 615.085 9.74464C615.001 9.44598 614.866 9.18464 614.679 8.96064C614.502 8.72731 614.273 8.54531 613.993 8.41464C613.713 8.27464 613.372 8.20464 612.971 8.20464C612.215 8.20464 611.646 8.47998 611.263 9.03064C610.89 9.58131 610.703 10.3046 610.703 11.2006V13.2166C610.703 14.178 610.89 14.92 611.263 15.4426C611.646 15.956 612.215 16.2126 612.971 16.2126ZM618.379 7.30864H624.595V8.40064H622.075V16.0166H624.595V17.1086H618.379V16.0166H620.899V8.40064H618.379V7.30864ZM628.141 13.0766V17.1086H626.965V7.30864H630.465C630.969 7.30864 631.408 7.38331 631.781 7.53264C632.155 7.67264 632.463 7.86398 632.705 8.10664C632.957 8.34931 633.144 8.63398 633.265 8.96064C633.396 9.27798 633.461 9.61398 633.461 9.96864V10.3886C633.461 10.7433 633.396 11.084 633.265 11.4106C633.144 11.7373 632.957 12.0266 632.705 12.2786C632.453 12.5213 632.141 12.7173 631.767 12.8666C631.394 13.0066 630.96 13.0766 630.465 13.0766H628.141ZM628.141 11.9846H630.325C631.632 11.9846 632.285 11.4246 632.285 10.3046V10.0526C632.285 9.55798 632.122 9.16131 631.795 8.86264C631.478 8.55464 630.988 8.40064 630.325 8.40064H628.141V11.9846ZM635.566 7.30864H636.742V16.0166H641.866V17.1086H635.566V7.30864ZM644.236 7.30864H650.172V8.40064H645.412V11.6486H650.088V12.7406H645.412V16.0166H650.256V17.1086H644.236V7.30864Z" fill="white"/>
</g>
<defs>
<clipPath id="clip0_48_358">
<rect width="652" height="23" fill="white" transform="translate(0 0.608643)"/>
</clipPath>
</defs>
</svg>
